<?xml version="1.0" encoding="UTF-8"?>
<svg width="96" height="96" viewBox="0 0 96 96" fill="none" xmlns="http://www.w3.org/2000/svg">
  <!-- Left Ear -->
  <path d="M28 40 C28 22 33 6 38 6 C43 6 46 22 45 40 Z" fill="#6366F1" />
  <path d="M31 38 C31 24 34 11 38 11 C41 11 43 24 42 38 Z" fill="#E879F9" opacity="0.6" />
  <!-- Right Ear -->
  <path d="M51 40 C50 22 53 6 58 6 C63 6 68 22 68 40 Z" fill="#6366F1" />
  <path d="M54 38 C53 24 55 11 58 11 C62 11 65 24 65 38 Z" fill="#E879F9" opacity="0.6" />
  <!-- Bunny Head -->
  <rect x="18" y="34" width="60" height="52" rx="26" fill="#6366F1" />
  <!-- Cheeks highlight -->
  <circle cx="28" cy="68" r="4.5" fill="#E879F9" opacity="0.4" />
  <circle cx="68" cy="68" r="4.5" fill="#E879F9" opacity="0.4" />
  <!-- Eyes -->
  <rect x="33" y="48" width="9" height="18" rx="4.5" fill="#FFFFFF" />
  <rect x="54" y="48" width="9" height="18" rx="4.5" fill="#FFFFFF" />
  <circle cx="37.5" cy="57" r="3" fill="#1C1C24" />
  <circle cx="58.5" cy="57" r="3" fill="#1C1C24" />
  <!-- Bunny Nose & Mouth -->
  <polygon points="45.5,69 50.5,69 48,72" fill="#E879F9" />
  <path d="M48 72.5 Q45 76 43 74 M48 72.5 Q51 76 53 74" stroke="#FFFFFF" stroke-width="1.5" stroke-linecap="round" fill="none" opacity="0.8" />
</svg>
